<svg width="205" height="205" viewBox="0 0 205 205" fill="none" xmlns="http://www.w3.org/2000/svg">
<rect width="205" height="205" rx="48" fill="url(#paint0_linear)"/>
<rect width="205" height="205" rx="48" fill="url(#paint1_linear)"/>
<circle cx="87.3318" cy="89.3317" r="66" transform="rotate(-45.6668 87.3318 89.3317)" fill="url(#paint2_linear)"/>
<circle cx="112.359" cy="113.084" r="62.5" transform="rotate(-45.6668 112.359 113.084)" fill="url(#paint3_linear)"/>
<circle cx="101.185" cy="102.625" r="62.5" transform="rotate(-174.058 101.185 102.625)" fill="url(#paint4_linear)" fill-opacity="0.4"/>
<path d="M190.271 145.201C190.585 146.534 190.193 147.945 189.252 148.886L155.938 182.122L144.886 193.253C143.945 194.193 142.534 194.585 141.201 194.272C139.869 193.958 138.85 193.018 138.379 191.685L116.196 125.212C115.725 123.802 116.118 122.234 117.215 121.215C118.234 120.117 119.801 119.725 121.212 120.196L187.684 142.379C189.017 142.85 189.958 143.869 190.271 145.201Z" fill="url(#paint5_linear)"/>
<defs>
<linearGradient id="paint0_linear" x1="-21.4702" y1="-28.2025" x2="65.8238" y2="307.613" gradientUnits="userSpaceOnUse">
<stop stop-color="#43D48E"/>
<stop offset="1" stop-color="#20B86F"/>
</linearGradient>
<linearGradient id="paint1_linear" x1="-21.4702" y1="-28.2025" x2="65.8238" y2="307.613" gradientUnits="userSpaceOnUse">
<stop stop-color="#43D48E"/>
<stop offset="1" stop-color="#10BC6A"/>
</linearGradient>
<linearGradient id="paint2_linear" x1="111.332" y1="8.83167" x2="-4.16823" y2="170.832" gradientUnits="userSpaceOnUse">
<stop stop-color="#3B4538"/>
<stop offset="1" stop-color="#0F160D" stop-opacity="0"/>
</linearGradient>
<linearGradient id="paint3_linear" x1="135.086" y1="36.853" x2="25.7112" y2="190.262" gradientUnits="userSpaceOnUse">
<stop stop-color="#6DEE40"/>
<stop offset="1" stop-color="#FAFF00"/>
</linearGradient>
<linearGradient id="paint4_linear" x1="123.912" y1="26.3939" x2="14.5371" y2="179.803" gradientUnits="userSpaceOnUse">
<stop stop-color="#6DEE40"/>
<stop offset="1" stop-color="#FAFF00"/>
</linearGradient>
<linearGradient id="paint5_linear" x1="169.125" y1="139.442" x2="115.793" y2="222.046" gradientUnits="userSpaceOnUse">
<stop stop-color="white"/>
<stop offset="1" stop-color="white" stop-opacity="0"/>
</linearGradient>
</defs>
</svg>
