<svg width="206" height="206" viewBox="0 0 206 206" fill="none" xmlns="http://www.w3.org/2000/svg">
<rect x="0.995117" y="0.789551" width="205" height="205" rx="48" fill="#1842DA"/>
<rect x="0.995117" y="0.789551" width="205" height="205" rx="48" fill="url(#paint0_linear)" fill-opacity="0.6"/>
<path d="M133.125 100.796C140.843 105.251 140.843 116.39 133.125 120.846L54.9865 165.959C47.2691 170.415 37.6224 164.845 37.6224 155.934L37.6224 65.7074C37.6224 56.7961 47.2691 51.2266 54.9865 55.6822L133.125 100.796Z" fill="#ED1B6C"/>
<mask id="mask0" mask-type="alpha" maskUnits="userSpaceOnUse" x="37" y="54" width="102" height="114">
<path d="M133.125 100.796C140.843 105.251 140.843 116.39 133.125 120.846L54.9865 165.959C47.2691 170.415 37.6224 164.845 37.6224 155.934L37.6224 65.7074C37.6224 56.7961 47.2691 51.2266 54.9865 55.6822L133.125 100.796Z" fill="#ED1B6C"/>
</mask>
<g mask="url(#mask0)">
<path d="M81.7431 110.755C74.4038 104.619 77.2522 92.7342 86.5757 90.5918L146.132 76.9064C153.204 75.2814 160.01 80.4883 160.292 87.7389L162.842 153.347C163.231 163.375 151.548 169.115 143.849 162.678L81.7431 110.755Z" fill="#C6185F"/>
</g>
<path d="M79.8749 109.27C72.1575 104.814 72.1575 93.6751 79.8749 89.2195L158.013 44.1062C165.731 39.6505 175.378 45.2201 175.378 54.1314L175.378 144.358C175.378 153.269 165.731 158.839 158.013 154.383L79.8749 109.27Z" fill="#F6F66C"/>
<defs>
<linearGradient id="paint0_linear" x1="103.495" y1="209.961" x2="10.1465" y2="0.720678" gradientUnits="userSpaceOnUse">
<stop stop-color="#5511E5"/>
<stop offset="1" stop-color="#8E7EEE"/>
</linearGradient>
</defs>
</svg>
