<svg width="205" height="205" viewBox="0 0 205 205" fill="none" xmlns="http://www.w3.org/2000/svg">
<rect width="205" height="205" rx="48" fill="url(#paint0_linear)"/>
<path d="M125 93.3039C129 95.6133 129 101.387 125 103.696L55.25 143.966C51.25 146.276 46.25 143.389 46.25 138.77L46.25 58.2298C46.25 53.611 51.25 50.7243 55.25 53.0337L125 93.3039Z" fill="white"/>
<path d="M125 93.3039C129 95.6133 129 101.387 125 103.696L55.25 143.966C51.25 146.276 46.25 143.389 46.25 138.77L46.25 58.2298C46.25 53.611 51.25 50.7243 55.25 53.0337L125 93.3039Z" fill="url(#paint1_linear)"/>
<path d="M125 93.3039C129 95.6133 129 101.387 125 103.696L55.25 143.966C51.25 146.276 46.25 143.389 46.25 138.77L46.25 58.2298C46.25 53.611 51.25 50.7243 55.25 53.0337L125 93.3039Z" fill="url(#paint2_linear)"/>
<path d="M168 45.3038C172 47.6132 172 53.3867 168 55.6962L137.25 73.4497C133.25 75.7591 128.25 72.8723 128.25 68.2535L128.25 32.7465C128.25 28.1277 133.25 25.2409 137.25 27.5503L168 45.3038Z" fill="white"/>
<path d="M168 45.3038C172 47.6132 172 53.3867 168 55.6962L137.25 73.4497C133.25 75.7591 128.25 72.8723 128.25 68.2535L128.25 32.7465C128.25 28.1277 133.25 25.2409 137.25 27.5503L168 45.3038Z" fill="url(#paint3_linear)"/>
<path d="M143 147.804C147 150.113 147 155.887 143 158.196L119 172.053C115 174.362 110 171.475 110 166.856L110 139.144C110 134.525 115 131.638 119 133.947L143 147.804Z" fill="white"/>
<path d="M143 147.804C147 150.113 147 155.887 143 158.196L119 172.053C115 174.362 110 171.475 110 166.856L110 139.144C110 134.525 115 131.638 119 133.947L143 147.804Z" fill="url(#paint4_linear)"/>
<defs>
<linearGradient id="paint0_linear" x1="15.5" y1="200" x2="210.384" y2="-72.6668" gradientUnits="userSpaceOnUse">
<stop stop-color="#8722B7"/>
<stop offset="0.933254" stop-color="#2E2054"/>
</linearGradient>
<linearGradient id="paint1_linear" x1="134" y1="98.5" x2="28.5" y2="157" gradientUnits="userSpaceOnUse">
<stop offset="0.0677083" stop-color="#0BFFF0"/>
<stop offset="0.317708" stop-color="#FF540B"/>
<stop offset="0.489583" stop-color="#FFE600"/>
<stop offset="0.666667" stop-color="white"/>
</linearGradient>
<linearGradient id="paint2_linear" x1="189.5" y1="-9" x2="-23.5" y2="288" gradientUnits="userSpaceOnUse">
<stop stop-color="#0BFFF0"/>
<stop offset="0.292052" stop-color="#FF540B"/>
<stop offset="0.514651" stop-color="#FFE600"/>
<stop offset="0.666667" stop-color="white"/>
<stop offset="1" stop-color="white"/>
</linearGradient>
<linearGradient id="paint3_linear" x1="197" y1="4" x2="112" y2="88" gradientUnits="userSpaceOnUse">
<stop stop-color="#0BC4FF"/>
<stop offset="0.418963" stop-color="#B10BFF"/>
<stop offset="1" stop-color="white"/>
<stop offset="1" stop-color="#FF6B00"/>
</linearGradient>
<linearGradient id="paint4_linear" x1="152" y1="125" x2="63" y2="229" gradientUnits="userSpaceOnUse">
<stop stop-color="#0BFFF0"/>
<stop offset="0.743732" stop-color="#FFC90B"/>
<stop offset="1" stop-color="#FFE600"/>
<stop offset="1" stop-color="white"/>
</linearGradient>
</defs>
</svg>
