<svg width="205" height="205" viewBox="0 0 205 205" fill="none" xmlns="http://www.w3.org/2000/svg">
<rect width="205" height="205" rx="48" fill="url(#paint0_linear)"/>
<path fill-rule="evenodd" clip-rule="evenodd" d="M177.557 127.263L163.917 81.4108L150.276 35.5584C149.737 33.6775 148.218 32.281 146.256 31.8254C144.321 31.4638 142.373 32.1234 141.071 33.6158L121.319 57.3849C112.014 68.5972 99.9262 76.8417 86.3981 81.8353C85.7398 82.0238 85.2025 82.2795 84.5711 82.5621C83.5636 82.9524 82.462 83.3696 81.4545 83.7599L55.9556 91.3678C44.6974 94.6937 38.3356 106.59 41.6346 117.754C44.9606 129.012 56.8564 135.374 68.0206 132.075L75.7631 158.044C78.2811 166.481 87.1795 171.259 95.6164 168.741C104.053 166.223 108.831 157.324 106.313 148.888L98.6786 123.295C112.718 120.088 127.352 120.374 141.315 124.719L170.896 133.851C172.791 134.428 174.793 133.957 176.216 132.531C177.667 131.2 178.096 129.144 177.557 127.263Z" fill="url(#paint1_linear)"/>
<path fill-rule="evenodd" clip-rule="evenodd" d="M167.918 120.968L154.278 75.1153L140.638 29.263C140.099 27.3821 138.58 25.9856 136.617 25.53C134.682 25.1684 132.734 25.828 131.432 27.3204L111.681 51.0895C102.376 62.3018 90.2875 70.5463 76.7595 75.5399C76.1012 75.7284 75.5638 75.9841 74.9325 76.2666C73.9249 76.6569 72.8233 77.0742 71.8158 77.4645L46.3169 85.0723C35.0587 88.3983 28.6969 100.294 31.996 111.458C35.3219 122.717 47.2178 129.078 58.3819 125.779L66.1244 151.748C68.6424 160.185 77.5408 164.963 85.9777 162.445C94.4147 159.927 99.1927 151.029 96.6747 142.592L89.0399 116.999C103.08 113.792 117.713 114.079 131.677 118.424L161.258 127.556C163.153 128.133 165.154 127.661 166.578 126.236C167.934 124.932 168.457 122.849 167.918 120.968Z" fill="url(#paint2_linear)"/>
<path fill-rule="evenodd" clip-rule="evenodd" d="M46.2745 125.787C49.8781 129.842 54.9724 132.352 60.4953 132.805C60.4953 132.805 60.5894 132.778 60.5624 132.684L58.4753 125.752C58.4753 125.752 58.4484 125.658 58.3544 125.685C54.2434 126.964 50.1585 126.913 46.2745 125.787C46.2475 125.693 46.1804 125.814 46.2745 125.787Z" fill="white"/>
<path fill-rule="evenodd" clip-rule="evenodd" d="M68.0199 132.076C65.5747 132.776 63.0219 133.1 60.6165 132.873C60.6165 132.873 60.5225 132.9 60.5494 132.994L66.124 151.749C67.861 157.458 72.4859 161.527 78.0362 162.787C78.1302 162.76 78.1303 162.76 78.1033 162.666C77.1081 161.322 76.3412 159.711 75.8564 158.018L68.0199 132.076C68.1139 132.049 68.1139 132.049 68.0199 132.076Z" fill="url(#paint3_linear)"/>
<path fill-rule="evenodd" clip-rule="evenodd" d="M56.0221 91.247L81.521 83.6391C82.6495 83.3159 83.657 82.9256 84.6376 82.4413C85.269 82.1587 85.8333 81.9971 86.4646 81.7145C99.9927 76.7209 112.081 68.4764 121.386 57.2641L141.137 33.495C141.365 33.2261 141.526 33.0782 141.782 32.9033L140.704 29.1416C140.112 27.0727 138.378 25.636 136.16 25.3552C134.373 25.1547 132.479 26.0025 131.364 27.4409L111.748 50.9681C102.443 62.1804 90.3543 70.4249 76.8263 75.4185C76.168 75.607 75.6307 75.8627 74.9993 76.1453C73.9918 76.5356 72.8902 76.9528 71.8826 77.3431L46.3838 84.951C35.1255 88.2769 28.7638 100.173 32.0628 111.337C34.1499 118.269 39.5011 123.453 45.885 125.491C45.979 125.464 45.979 125.464 45.9521 125.37C44.0964 123.154 42.6301 120.521 41.7011 117.633C38.4021 106.469 44.7908 94.667 56.0221 91.247Z" fill="url(#paint4_linear)"/>
<defs>
<linearGradient id="paint0_linear" x1="-31.8633" y1="259.36" x2="208.316" y2="30.8241" gradientUnits="userSpaceOnUse">
<stop stop-color="#47172F"/>
<stop offset="1"/>
</linearGradient>
<linearGradient id="paint1_linear" x1="109.291" y1="163.164" x2="52.4912" y2="129.604" gradientUnits="userSpaceOnUse">
<stop stop-color="#F00044"/>
<stop offset="1" stop-color="#C71145"/>
</linearGradient>
<linearGradient id="paint2_linear" x1="60.4994" y1="132.026" x2="87.4327" y2="179.987" gradientUnits="userSpaceOnUse">
<stop stop-color="white"/>
<stop offset="1" stop-color="#EBEBEB"/>
</linearGradient>
<linearGradient id="paint3_linear" x1="64.7074" y1="131.701" x2="73.9453" y2="163.958" gradientUnits="userSpaceOnUse">
<stop stop-color="#73F0ED"/>
<stop offset="1" stop-color="#33F2EE"/>
</linearGradient>
<linearGradient id="paint4_linear" x1="78.175" y1="41.5783" x2="97.9374" y2="110.584" gradientUnits="userSpaceOnUse">
<stop stop-color="#73F0ED"/>
<stop offset="1" stop-color="#33F2EE"/>
</linearGradient>
</defs>
</svg>
